<svg width="25" height="25" viewBox="0 0 25 25" fill="none" xmlns="http://www.w3.org/2000/svg">
<g id="lets-icons:arrow-drop-down">
<path id="Vector" d="M12.308 15.5115L8.59302 11.0535C8.4957 10.9366 8.43369 10.7945 8.41427 10.6436C8.39485 10.4928 8.41881 10.3396 8.48335 10.2019C8.54789 10.0642 8.65033 9.94778 8.77868 9.86623C8.90702 9.78468 9.05595 9.7414 9.20802 9.74146H15.792C15.944 9.74159 16.0928 9.78501 16.221 9.86663C16.3492 9.94826 16.4515 10.0647 16.5159 10.2024C16.5803 10.34 16.6042 10.4932 16.5847 10.6439C16.5653 10.7946 16.5033 10.9367 16.406 11.0535L12.692 15.5115C12.6686 15.5396 12.6392 15.5622 12.606 15.5778C12.5728 15.5933 12.5366 15.6013 12.5 15.6013C12.4634 15.6013 12.4272 15.5933 12.394 15.5778C12.3608 15.5622 12.3315 15.5396 12.308 15.5115Z" fill="black"/>
</g>
</svg>
