<svg width="28" height="28" viewBox="0 0 28 28" fill="none" xmlns="http://www.w3.org/2000/svg">
<g id="vuesax/bold/tick-circle">
<g id="tick-circle">
<path id="Vector" d="M14.0793 2.95523C7.89618 2.95523 2.85767 7.99374 2.85767 14.1769C2.85767 20.36 7.89618 25.3985 14.0793 25.3985C20.2624 25.3985 25.3009 20.36 25.3009 14.1769C25.3009 7.99374 20.2624 2.95523 14.0793 2.95523ZM19.4432 11.5959L13.0806 17.9586C12.9235 18.1157 12.7103 18.2054 12.4858 18.2054C12.2614 18.2054 12.0482 18.1157 11.8911 17.9586L8.71536 14.7828C8.38993 14.4574 8.38993 13.9188 8.71536 13.5933C9.04078 13.2679 9.57942 13.2679 9.90485 13.5933L12.4858 16.1743L18.2537 10.4064C18.5792 10.081 19.1178 10.081 19.4432 10.4064C19.7687 10.7318 19.7687 11.2592 19.4432 11.5959Z" fill="#23A26D"/>
</g>
</g>
</svg>
