<svg width="34" height="34" viewBox="0 0 34 34" fill="none" xmlns="http://www.w3.org/2000/svg">
<g id="ion:filter">
<path id="Vector" d="M30.8906 11.0938H3.04688C2.63662 11.0938 2.24316 10.9308 1.95307 10.6407C1.66297 10.3506 1.5 9.95713 1.5 9.54688C1.5 9.13662 1.66297 8.74316 1.95307 8.45307C2.24316 8.16297 2.63662 8 3.04688 8H30.8906C31.3009 8 31.6943 8.16297 31.9844 8.45307C32.2745 8.74316 32.4375 9.13662 32.4375 9.54688C32.4375 9.95713 32.2745 10.3506 31.9844 10.6407C31.6943 10.9308 31.3009 11.0938 30.8906 11.0938ZM25.7344 18.3125H8.20312C7.79287 18.3125 7.39941 18.1495 7.10932 17.8594C6.81922 17.5693 6.65625 17.1759 6.65625 16.7656C6.65625 16.3554 6.81922 15.9619 7.10932 15.6718C7.39941 15.3817 7.79287 15.2188 8.20312 15.2188H25.7344C26.1446 15.2188 26.5381 15.3817 26.8282 15.6718C27.1183 15.9619 27.2812 16.3554 27.2812 16.7656C27.2812 17.1759 27.1183 17.5693 26.8282 17.8594C26.5381 18.1495 26.1446 18.3125 25.7344 18.3125ZM19.5469 25.5312H14.3906C13.9804 25.5312 13.5869 25.3683 13.2968 25.0782C13.0067 24.7881 12.8438 24.3946 12.8438 23.9844C12.8438 23.5741 13.0067 23.1807 13.2968 22.8906C13.5869 22.6005 13.9804 22.4375 14.3906 22.4375H19.5469C19.9571 22.4375 20.3506 22.6005 20.6407 22.8906C20.9308 23.1807 21.0938 23.5741 21.0938 23.9844C21.0938 24.3946 20.9308 24.7881 20.6407 25.0782C20.3506 25.3683 19.9571 25.5312 19.5469 25.5312Z" fill="black"/>
</g>
</svg>
