<svg width="22" height="23" viewBox="0 0 22 23" fill="none" xmlns="http://www.w3.org/2000/svg">
<path d="M20.2395 0.00202908H1.88371C1.64711 -0.00936643 1.41065 0.0273199 1.18786 0.109988C0.965077 0.192657 0.760339 0.319684 0.585369 0.483797C0.410399 0.647911 0.268633 0.845888 0.168188 1.0664C0.0677421 1.2869 0.0105888 1.52561 0 1.76886V20.681C0.0138601 21.19 0.216771 21.6744 0.567075 22.0345C0.917379 22.3946 1.3885 22.6032 1.88371 22.6174H20.2395C20.721 22.5954 21.1748 22.3803 21.5038 22.0183C21.8328 21.6563 22.0108 21.1762 21.9995 20.681V1.76886C22.0034 1.53211 21.9603 1.29703 21.8727 1.07803C21.7851 0.859034 21.6549 0.660738 21.4901 0.495304C21.3253 0.329869 21.1294 0.200783 20.9144 0.115961C20.6993 0.0311392 20.4697 -0.00763087 20.2395 0.00202908ZM6.87484 18.8576H3.67117V8.77963H6.87484V18.8576ZM5.34863 7.25309C5.12507 7.2611 4.90232 7.22149 4.69436 7.13677C4.4864 7.05205 4.29773 6.92403 4.1402 6.76076C3.98267 6.5975 3.85969 6.40251 3.77897 6.18804C3.69826 5.97358 3.66155 5.74427 3.67117 5.51453C3.66128 5.2823 3.69872 5.05052 3.78109 4.83404C3.86346 4.61757 3.98894 4.42118 4.14948 4.25748C4.31001 4.09378 4.50206 3.96638 4.7133 3.88346C4.92454 3.80054 5.15031 3.76393 5.37613 3.77597C5.59969 3.76796 5.82244 3.80757 6.0304 3.89229C6.23836 3.97701 6.42702 4.10503 6.58455 4.2683C6.74208 4.43156 6.86507 4.62655 6.94578 4.84102C7.0265 5.05548 7.0632 5.28479 7.05359 5.51453C7.06347 5.74676 7.02603 5.97854 6.94366 6.19502C6.86129 6.41149 6.73581 6.60788 6.57528 6.77158C6.41474 6.93528 6.22269 7.06268 6.01145 7.1456C5.80021 7.22852 5.57444 7.26513 5.34863 7.25309ZM18.3421 18.8576H15.1247V13.3451C15.1247 12.0306 14.6709 11.126 13.5297 11.126C13.1752 11.1291 12.8303 11.2449 12.5423 11.4575C12.2543 11.6701 12.0373 11.969 11.921 12.3133C11.8316 12.5714 11.7941 12.8455 11.811 13.119V18.8576H8.64855V8.77963H11.811V10.1931C12.0921 9.6621 12.5106 9.22135 13.0202 8.91952C13.5297 8.6177 14.1105 8.46656 14.6984 8.4828C16.7746 8.4828 18.3421 9.89626 18.3421 12.9069V18.8576Z" fill="white"/>
</svg>
