<svg width="22" height="22" viewBox="0 0 22 22" fill="none" xmlns="http://www.w3.org/2000/svg">
<path d="M11 12.375C10.3201 12.375 9.65552 12.1734 9.09023 11.7957C8.52494 11.418 8.08434 10.8811 7.82417 10.253C7.56399 9.62486 7.49592 8.93369 7.62855 8.26688C7.76119 7.60007 8.08858 6.98757 8.56932 6.50682C9.05007 6.02608 9.66257 5.69869 10.3294 5.56605C10.9962 5.43342 11.6874 5.50149 12.3155 5.76167C12.9436 6.02184 13.4805 6.46244 13.8582 7.02773C14.2359 7.59302 14.4375 8.25763 14.4375 8.9375C14.4364 9.84885 14.0739 10.7226 13.4295 11.367C12.7851 12.0114 11.9113 12.3739 11 12.375ZM11 6.875C10.5921 6.875 10.1933 6.99597 9.85414 7.2226C9.51496 7.44923 9.25061 7.77134 9.0945 8.14822C8.93839 8.52509 8.89755 8.93979 8.97713 9.33988C9.05671 9.73996 9.25315 10.1075 9.54159 10.3959C9.83004 10.6844 10.1975 10.8808 10.5976 10.9604C10.9977 11.04 11.4124 10.9991 11.7893 10.843C12.1662 10.6869 12.4883 10.4225 12.7149 10.0834C12.9415 9.74419 13.0625 9.34543 13.0625 8.9375C13.062 8.39066 12.8445 7.86637 12.4578 7.4797C12.0711 7.09302 11.5468 6.87555 11 6.875Z" fill="#081C87"/>
<path d="M17.0397 13.4729C18.03 12.1685 18.5649 10.5752 18.5625 8.9375C18.5625 6.9318 17.7657 5.00825 16.3475 3.59001C14.9293 2.17176 13.0057 1.375 11 1.375C8.99431 1.375 7.07076 2.17176 5.65251 3.59001C4.23427 5.00825 3.43751 6.9318 3.43751 8.9375L17.0397 13.4729ZM17.0397 13.4729L17.039 13.475M17.0397 13.4729L17.039 13.475M17.039 13.475C17.039 13.475 16.8328 13.7459 16.8018 13.7823L17.039 13.475ZM5.86557 13.2169L5.86571 13.2168C5.84235 13.1877 5.78823 13.1168 5.7457 13.0609L5.6861 12.9824L5.66728 12.9576L5.66206 12.9507L5.66074 12.9489L5.66068 12.9489L5.66032 12.9484L5.66023 12.9483L5.6602 12.9482L5.6602 12.9482L5.86557 13.2169ZM5.86557 13.2169L5.8742 13.227M5.86557 13.2169L5.8742 13.227M5.8742 13.227L10.6186 18.8226L11 19.2724M5.8742 13.227L11 19.2724M11 19.2724L11.3814 18.8226M11 19.2724L11.3814 18.8226M11.3814 18.8226L16.132 13.2195L16.1366 13.214M11.3814 18.8226L16.1366 13.214M16.1366 13.214L16.1411 13.2085M16.1366 13.214L16.1411 13.2085M16.1411 13.2085C16.1613 13.1832 16.2144 13.1134 16.2559 13.0586L16.315 12.9806L16.3201 12.9739L16.3242 12.9685M16.1411 13.2085L16.3242 12.9685M16.3242 12.9685L16.3389 12.9492L16.3407 12.9468C17.216 11.7936 17.6891 10.3852 17.6875 8.9375L16.3242 12.9685ZM15.7288 4.20872C16.9828 5.46273 17.6874 7.16349 17.6875 8.93691L15.7288 4.20872ZM15.7288 4.20872C14.4746 2.95457 12.7736 2.25 11 2.25M15.7288 4.20872L11 2.25M11 2.25C9.22637 2.25 7.52538 2.95457 6.27123 4.20872M11 2.25L6.27123 4.20872M6.27123 4.20872C5.01715 5.46281 4.31258 7.16369 4.31251 8.93723L6.27123 4.20872ZM5.35933 13.1728L5.35925 13.1727C4.43472 11.9548 3.93527 10.4673 3.93751 8.93823V8.9375C3.93751 7.06441 4.68159 5.26803 6.00607 3.94356C7.33054 2.61908 9.12692 1.875 11 1.875C12.8731 1.875 14.6695 2.61908 15.9939 3.94356C17.3184 5.26803 18.0625 7.06441 18.0625 8.9375L18.0625 8.93823C18.0647 10.4665 17.5655 11.9533 16.6415 13.1706L16.5915 13.2364L16.591 13.2378L16.5353 13.3107C16.5078 13.3466 16.4798 13.383 16.4569 13.4124C16.4304 13.4466 16.4196 13.46 16.4207 13.4587L16.4205 13.459L11 19.8519L5.58779 13.469C5.51086 13.3708 5.4347 13.2721 5.35933 13.1728Z" fill="#081C87" stroke="#081C87"/>
</svg>
