<svg width="12" height="10" viewBox="0 0 12 10" fill="none" xmlns="http://www.w3.org/2000/svg">
<g id="Group 1000001760">
<path id="Vector" d="M1.29134 4.80113C1.29134 2.95356 2.78909 1.45581 4.63666 1.45581H5.16537C5.52048 1.45581 5.81104 1.24075 5.81104 0.977903C5.81104 0.715056 5.52048 0.5 5.16537 0.5H1.29134C0.581104 0.5 0 0.930113 0 1.45581V8.14645C0 8.67215 0.581104 9.10226 1.29134 9.10226H5.16537C5.52048 9.10226 5.81104 8.8872 5.81104 8.62436C5.81104 8.36151 5.52048 8.14645 5.16537 8.14645H4.63666C2.78909 8.14645 1.29134 6.6487 1.29134 4.80113Z" fill="#D00505"/>
<path id="Vector_2" d="M11.3963 4.63386L9.59491 3.30051C9.55001 3.26637 9.49236 3.24291 9.42934 3.23316C9.36632 3.2234 9.30081 3.22779 9.24118 3.24575C9.18155 3.26371 9.13051 3.29444 9.09461 3.33399C9.05871 3.37354 9.03956 3.42013 9.03963 3.46778C9.03963 3.94023 8.65664 4.32322 8.18419 4.32322H4.51994C4.16482 4.32322 3.87427 4.53828 3.87427 4.80113C3.87427 5.06397 4.16482 5.27903 4.51994 5.27903H8.18419C8.65664 5.27903 9.03963 5.66203 9.03963 6.13448C9.03963 6.34953 9.3883 6.45467 9.58845 6.30174L11.3899 4.96839C11.519 4.87759 11.519 4.72466 11.3963 4.63386Z" fill="#D00505"/>
</g>
</svg>
