<svg width="24" height="24" viewBox="0 0 24 24" fill="none" xmlns="http://www.w3.org/2000/svg">
<path d="M20.0002 10.999H22.0002C22.0002 5.869 18.1272 2 12.9902 2V4C17.0522 4 20.0002 6.943 20.0002 10.999Z" fill="white"/>
<path d="M13.0003 7.81469C15.1033 7.81469 16.0003 8.71169 16.0003 10.8147H18.0003C18.0003 7.58969 16.2253 5.81469 13.0003 5.81469V7.81469ZM16.4223 13.2577C16.2301 13.083 15.9776 12.9899 15.7181 12.9979C15.4585 13.0059 15.2123 13.1145 15.0313 13.3007L12.6383 15.7617C12.0623 15.6517 10.9043 15.2907 9.71228 14.1017C8.52028 12.9087 8.15928 11.7477 8.05228 11.1757L10.5113 8.78169C10.6977 8.60082 10.8064 8.35451 10.8144 8.0949C10.8225 7.83528 10.7292 7.58273 10.5543 7.39069L6.85928 3.32769C6.68432 3.13505 6.44116 3.0182 6.18143 3.00195C5.92171 2.98571 5.66588 3.07135 5.46828 3.24069L3.29828 5.10169C3.12539 5.27521 3.0222 5.50614 3.00828 5.75069C2.99328 6.00069 2.70728 11.9227 7.29928 16.5167C11.3053 20.5217 16.3233 20.8147 17.7053 20.8147C17.9073 20.8147 18.0313 20.8087 18.0643 20.8067C18.3088 20.793 18.5396 20.6894 18.7123 20.5157L20.5723 18.3447C20.7417 18.1472 20.8276 17.8915 20.8115 17.6317C20.7954 17.372 20.6788 17.1288 20.4863 16.9537L16.4223 13.2577Z" fill="white"/>
</svg>
