<svg width="20" height="20" viewBox="0 0 20 20" fill="none" xmlns="http://www.w3.org/2000/svg">
<path d="M10.2674 16.3269L10.0005 16.158L9.73338 16.3264L4.88353 19.3834L4.88262 19.384C4.63221 19.5426 4.36553 19.5087 4.16159 19.3535C3.95446 19.1959 3.82488 18.919 3.89691 18.5945C3.89693 18.5944 3.89695 18.5943 3.89696 18.5943L5.18242 12.8228L5.24563 12.539L5.03022 12.3437L0.741309 8.45519L0.741135 8.45503C0.252156 8.01212 0.560672 7.22995 1.11307 7.18397L1.11307 7.18398L1.11583 7.18374L6.76036 6.68238L7.06455 6.65537L7.17941 6.3724L9.38814 0.930908L9.3889 0.929014C9.61837 0.356995 10.3816 0.356995 10.6111 0.929015L10.6117 0.930544L12.8204 6.38426L12.9352 6.66757L13.2396 6.69461L18.8842 7.19597L18.8869 7.1962C19.4393 7.24218 19.7478 8.02434 19.2589 8.46726L19.2587 8.46742L14.9698 12.3559L14.7544 12.5512L14.8176 12.8351L16.103 18.6065C16.1752 18.9311 16.0456 19.2081 15.8384 19.3657C15.6345 19.5209 15.3678 19.5548 15.1174 19.3962L15.1172 19.3961L10.2674 16.3269Z" stroke="#081C87"/>
</svg>
